<?xml version="1.0" encoding="UTF-8"?>
<svg width="17px" height="17px" viewBox="0 0 17 17" version="1.1" xmlns="http://www.w3.org/2000/svg" xmlns:xlink="http://www.w3.org/1999/xlink">
    <!-- Generator: Sketch 59.1 (86144) - https://sketch.com -->
    <title>text-format-strikethrough</title>
    <desc>Created with Sketch.</desc>
    <g id="text-format-strikethrough" stroke="none" stroke-width="1" fill="none" fill-rule="evenodd">
        <g id="S" transform="translate(4.000000, 4.000000)" fill="#585858" fill-rule="nonzero">
            <path d="M1.61839844,7.17773438 L2.88988281,7.17773438 C3.06761719,8.05957031 3.9084375,8.62695312 5.12523437,8.62695312 C6.4240625,8.62695312 7.22386719,8.00488281 7.22386719,7.03417969 C7.22386719,6.2890625 6.7521875,5.85839844 5.70628906,5.59179688 L4.08617187,5.17480469 C2.68480469,4.8125 1.87816406,3.95800781 1.87816406,2.70703125 C1.87816406,1.12109375 3.23851562,0 5.13890625,0 C6.98460937,0 8.23558594,1.03222656 8.37914062,2.45410156 L7.11449219,2.45410156 C6.94359375,1.63378906 6.2053125,1.11425781 5.11839844,1.11425781 C3.94261719,1.11425781 3.15648437,1.73632812 3.15648437,2.64550781 C3.15648437,3.30175781 3.61449219,3.75292969 4.46898437,3.96484375 L6.06175781,4.38183594 C7.69554687,4.80566406 8.49535156,5.57128906 8.49535156,6.93164062 C8.49535156,8.62695312 7.14867187,9.74121094 4.99535156,9.74121094 C3.01976562,9.74121094 1.74828125,8.68164062 1.61839844,7.17773438 Z"></path>
            <polygon id="Decoration" points="-3.52606833e-13 6.00832639 -3.52606833e-13 5 10 5 10 6.00832639"></polygon>
        </g>
    </g>
</svg>