<?xml version="1.0" encoding="UTF-8"?>
<svg width="17px" height="17px" viewBox="0 0 17 17" version="1.1" xmlns="http://www.w3.org/2000/svg" xmlns:xlink="http://www.w3.org/1999/xlink">
    <!-- Generator: Sketch 59.1 (86144) - https://sketch.com -->
    <title>text-format-bold</title>
    <desc>Created with Sketch.</desc>
    <g id="text-format-bold" stroke="none" stroke-width="1" fill="none" fill-rule="evenodd">
        <path d="M5,13.9975586 L8.66210938,13.9975586 C10.8007812,13.9975586 12.1484375,12.9501953 12.1484375,11.1923828 C12.1484375,9.78613281 11.2988281,8.89990234 9.97314453,8.72412109 L9.97314453,8.66552734 C10.9912109,8.35791016 11.5844727,7.60351562 11.5844727,6.4609375 C11.5844727,4.94482422 10.5004883,4 8.79394531,4 L5,4 L5,13.9975586 Z M6.34033203,5.171875 L8.55957031,5.171875 C9.61425781,5.171875 10.2294922,5.73583984 10.2294922,6.6953125 C10.2294922,7.77929688 9.49707031,8.28466797 7.84912109,8.28466797 L6.34033203,8.28466797 L6.34033203,5.171875 Z M6.34033203,9.41992188 L8.69873047,9.41992188 C10.0170898,9.41992188 10.7714844,10.0717773 10.7714844,11.1850586 C10.7714844,12.3349609 9.98779297,12.8256836 8.05419922,12.8256836 L6.34033203,12.8256836 L6.34033203,9.41992188 Z" id="B" fill="#585858" fill-rule="nonzero"></path>
    </g>
</svg>