<?xml version="1.0" encoding="UTF-8"?>
<svg width="16px" height="15px" viewBox="0 0 16 15" version="1.1" xmlns="http://www.w3.org/2000/svg" xmlns:xlink="http://www.w3.org/1999/xlink">
    <!-- Generator: Sketch 53 (72520) - https://sketchapp.com -->
    <title>Star</title>
    <desc>Created with Sketch.</desc>
    <g id="Symbols" stroke="none" stroke-width="1" fill="none" fill-rule="evenodd">
        <g id="Buttons-/-Icons-/-Star---Normal,-On,-Inactive+Normal,-Inactive+On-/-Toolbar-/-Aqua" transform="translate(-1.000000, -1.000000)" fill="#737373">
            <path d="M16.3516983,6.2365837 L11.6763021,6.2365837 C11.3967099,6.23811108 11.1476087,6.06125341 11.058239,5.7977692 L9.61806313,1.43932951 C9.52764101,1.17655128 9.27926288,1 9,1 C8.72073712,1 8.47235899,1.17655128 8.38193687,1.43932951 L6.94176105,5.7977692 C6.8523913,6.06125341 6.60329013,6.23811108 6.32369791,6.2365837 L1.64830167,6.2365837 C1.37050879,6.23038414 1.12102372,6.40479762 1.03283022,6.66685601 C0.94463671,6.92891439 1.03828623,7.21755105 1.26386049,7.37891312 L5.05799925,10.0900338 C5.28217309,10.2483686 5.3768186,10.5332591 5.2916212,10.7932546 L3.8455309,15.1711056 C3.78338254,15.3663913 3.81948969,15.5794879 3.94255687,15.7437319 C4.06562405,15.9079759 4.26062279,16.0033105 4.46655127,15.9999121 C4.60387469,15.9992755 4.7374504,15.955302 4.84803522,15.8743265 L8.61555882,13.1826172 C8.84548561,13.019102 9.15451439,13.019102 9.38444118,13.1826172 L13.1519648,15.8743265 C13.2625496,15.955302 13.3961253,15.9992755 13.5334487,15.9999121 C13.7393772,16.0033105 13.9343759,15.9079759 14.0574431,15.7437319 C14.1805103,15.5794879 14.2166175,15.3663913 14.1544691,15.1711056 L12.7083788,10.7932546 C12.6231814,10.5332591 12.7178269,10.2483686 12.9420008,10.0900338 L16.7361395,7.37891312 C16.9617138,7.21755105 17.0553633,6.92891439 16.9671698,6.66685601 C16.8789763,6.40479762 16.6294912,6.23038414 16.3516983,6.2365837 L16.3516983,6.2365837 Z" id="Star"></path>
        </g>
    </g>
</svg>